<svg id="Layer_2" data-name="Layer 2" xmlns="http://www.w3.org/2000/svg" viewBox="0 0 1913.96 651">
	<defs>
		<style type="text/css">
		.cls-1,.cls-2{
			fill:#fff;
			stroke-miterlimit:5;
			stroke-width:9px;}
		.cls-1{
			stroke-dasharray: 4000;
			stroke-dashoffset:0;
			-webkit-animation:dash 2s linear forwards;
			-o-animation:dash 2s linear forwards;
			-moz-animation:dash 2s linear forwards;
			-animation:dash 2s linear forwards;
		}
		@-webkit-keyframes dash {
			from{
				stroke-dashoffset:4000;
			}
			to{
				stroke-dashoffset:0;
			}
		}
		.cls-2{
			stroke-dasharray: 1000;
			stroke-dashoffset:0;
			-webkit-animation:sol 2.35s linear forwards;
			-o-animation:dash 2s linear forwards;
			-moz-animation:dash 2s linear forwards;
			-animation:dash 2s linear forwards;
		}
		@-webkit-keyframes sol {
			from{
				stroke-dashoffset:1000;
			}
			to{
				stroke-dashoffset:0;
			}
		}
		.cls-1{
			stroke:#2b76b7;
		}
		.cls-2{
			font-size:254.99px;
			stroke:#0b3954;
			font-family:DoppioOne-Regular, Doppio One;}
		#Layer_2:hover .cls-1{
			fill:#2b76b7;
			transition: 0.8s;
		}
		#Layer_2{
			cursor:pointer;
		}
		#Layer_2:hover .cls-2{
			fill:#0b3954;
			transition: 0.8s;
		}
		#Layer_2.clickit .cls-1{
			fill:#2b76b7;
			stroke:#2b76b7;
		}
		#Layer_2.clickit .cls-2{
			fill:#0b3954;
			stroke:#0b3954;
		}
		<script type="text/javascript">
			var clicks=document.querySelector('#Layer_2');
			clicks.addEventListener('click',function(){
				this.classList.toggle('clickit');
			});
		</script>
		</style>
	</defs>
	<title>Untitled-2</title>
	<path class="cls-1" d="M593.05,219.53a259.88,259.88,0,0,0-45-88C501.3,72,439.55,38.92,364.89,31a262.23,262.23,0,0,0-90.15,6.4C239.31,46,206.33,60.06,177.2,81.86c-53.5,40.05-88.08,92.66-102,158.45A240.08,240.08,0,0,0,73.6,332c6.85,39.58,23.38,74.72,48.57,105.73,44,54.18,100.25,83.46,170.88,82.92,5.51,0,11,0,16.52,0a5.75,5.75,0,0,1-4,2.69C292,527.14,278,530,264.86,535.13c-12.83,5-23.93,13.14-24.66,28.9-.68,14.8,5.48,26.73,18.89,33,10.41,4.83,21.75,9.23,33,10.33,27.05,2.62,54.29,3.36,81.47,4.52,14.5.62,29.05.12,43.53.95,8,.47,15.91,2.63,23.85,4-.07,1.17-.15,2.34-.21,3.5-46.08,30.17-94.2,41.93-146.86,13.61,12.32,22.72,33.11,29.86,55.61,33.37s44.71,1.53,66.45-4.68c20-5.71,38.55-14.2,52.2-30.84,13-15.79,10.59-29.14-7.08-39.34a48.7,48.7,0,0,0-6.15-2.91c-25.05-10.13-51.67-12.4-78.13-15.39-12.59-1.41-25.23-2.45-37.84-3.65,0-.71,0-1.42,0-2.13,10.81-.5,21.61-1.08,32.41-1.49,25.65-1,51.4-.82,76.9-3.32,11.64-1.15,23.85-5.76,33.89-11.91,17.77-10.86,18.15-42.24-1.34-58.1-21.76-17.69-48.18-22.73-74.65-27.47-4.94-.88-9.93-1.52-15-2.1-1.38-.17-2.75-.35-4.13-.5-4.06-.46-8.14-.9-12.23-1.41V462c-3.78-.35-7.54-.65-11.06-.9-11.31-.8-20.26-1.09-20.26-1.09l3.86.37c-4.75-.3-9.5-.6-14.24-.93-15-1.06-30-2.14-45.06-2.48-41.58-.93-74.73-18.61-101.29-49.51-21.46-25-35.47-53.77-42.93-86-5.62-24.26-7.12-48.71-1.49-72.56a213.82,213.82,0,0,1,20.4-52.93C201.64,125.14,263,89.73,342.89,85.3c22.23-1.23,43.95,2.57,65.44,8.47,26.18,7.2,50.92,17.68,71.81,34.84C542.74,180,573,246.89,570.7,327.81c-.66,23-7.12,45.07-20.75,64.37-17.27,24.45-42.9,36.27-69.75,46.17-13.89,5.12-27.93,9.82-43.2,15.16,2.18,1.42,3.08,2.5,4,2.57,26.14,1.89,51.94.37,76.34-10.11,50.23-21.57,76.51-62,85-114C608.64,294.08,603.82,256.22,593.05,219.53Z" transform="translate(-65.45 -25.07)"/>
	<text class="cls-2" transform="translate(617.97 278.25) scale(1.28 1)">Spark<tspan x="0" y="305.99">Envision</tspan></text></svg>